<?xml version="1.0" standalone="no"?>
<!DOCTYPE svg PUBLIC "-//W3C//DTD SVG 20010904//EN"
 "http://www.w3.org/TR/2001/REC-SVG-20010904/DTD/svg10.dtd">
<svg version="1.0" xmlns="http://www.w3.org/2000/svg"
 width="539.000000pt" height="539.000000pt" viewBox="0 0 539.000000 539.000000"
 preserveAspectRatio="xMidYMid meet">
<metadata>
Created by potrace 1.14, written by Peter Selinger 2001-2017
</metadata>
<g transform="translate(0.000000,539.000000) scale(0.100000,-0.100000)"
fill="#000000" stroke="none">
<path d="M980 4320 l0 -330 230 0 230 0 0 -130 0 -130 -229 0 -228 0 -7 -46
c-3 -26 -6 -129 -6 -230 l0 -184 -225 0 -225 0 0 -235 0 -235 -230 0 -230 0 0
-795 0 -795 330 0 330 0 0 465 0 465 130 0 130 0 0 -480 c0 -303 4 -480 10
-480 5 0 7 7 4 15 -5 13 23 15 220 15 l227 0 -2 -250 c0 -182 -4 -250 -12
-250 -7 0 -3 -7 7 -15 17 -13 102 -15 572 -15 537 0 552 1 575 20 l24 20 -37
-15 c-32 -13 -119 -15 -565 -14 -290 0 -537 4 -548 9 l-20 9 20 1 c11 1 14 4
8 7 -7 2 -13 11 -13 19 0 12 84 14 560 14 l560 0 0 330 0 330 -462 2 -463 3
-3 127 -3 128 1061 0 1061 0 -3 -127 -3 -128 -462 -3 -463 -2 0 -330 0 -330
565 0 565 0 0 235 0 235 230 0 230 0 0 460 0 460 135 0 135 0 0 -460 0 -460
325 0 325 0 0 790 0 790 -230 0 -230 0 0 230 0 230 -230 0 -230 0 0 235 0 235
-230 0 -230 0 0 130 0 130 230 0 230 0 0 330 0 330 -330 0 -330 0 0 -230 0
-230 -230 0 -230 0 0 -230 0 -230 -595 0 -595 0 0 230 0 230 -230 0 -230 0 0
184 c0 101 -3 204 -6 230 l-7 46 -328 0 -329 0 0 -330z"/>
<path d="M945 3749 c-4 -6 -5 -12 -2 -15 2 -3 7 2 10 11 7 17 1 20 -8 4z"/>
<path d="M475 3289 c-4 -6 -5 -12 -2 -15 2 -3 7 2 10 11 7 17 1 20 -8 4z"/>
<path d="M22 2838 c-7 -7 -12 -16 -12 -22 0 -5 6 -2 13 7 10 15 38 17 212 20
l200 2 -200 3 c-146 1 -204 -1 -213 -10z"/>
<path d="M4451 1187 c-13 -21 -12 -21 5 -5 10 10 16 20 13 22 -3 3 -11 -5 -18
-17z"/>
<path d="M1098 1163 c56 -2 148 -2 205 0 56 1 10 3 -103 3 -113 0 -159 -2
-102 -3z"/>
<path d="M3122 703 c153 -2 403 -2 555 0 153 1 28 2 -277 2 -305 0 -430 -1
-278 -2z"/>
</g>
</svg>
